<svg data-name="Layer 2" viewBox="0 0 16 16" xmlns="http://www.w3.org/2000/svg" width="16" height="16"><path fill="#FFFFFF" d="M8 15.886a7.771 7.771 0 0 1-4.114-1.161l-1.737.457A1.065 1.065 0 0 1 .851 13.87l.457-1.691a7.707 7.707 0 0 1-.933-2.171 8 8 0 0 1-.242-2.587 7.89 7.89 0 1 1 9.284 8.337A7.817 7.817 0 0 1 8 15.886Zm-4.114-2.309a1.07 1.07 0 0 1 .562.16 6.601 6.601 0 0 0 1.998.827 6.857 6.857 0 0 0 2.743.069A6.734 6.734 0 0 0 12.8 3.278 6.734 6.734 0 0 0 1.275 7.502a6.743 6.743 0 0 0 1.024 4.114 1.083 1.083 0 0 1 .128.855l-.457 1.595 1.687-.452a1.029 1.029 0 0 1 .242-.037Z"/><path fill="#FFFFFF" d="M5.783 4.951a.681.681 0 0 1 .613.393l.375.795a.859.859 0 0 1-.069.846.846.846 0 0 0-.027.914 3.598 3.598 0 0 0 1.609 1.445.832.832 0 0 0 .914-.192l.041-.041a.859.859 0 0 1 .974-.169l.507.242a.855.855 0 0 1 .393 1.166c-.247.457-.809.869-2.085.608-2.286-.457-3.831-3.008-4.032-3.355l-.041-.082c-.11-.27-.635-1.701.457-2.473a.608.608 0 0 1 .37-.096Z"/></svg>